<svg height="512" viewBox="0 0 54 58" width="512" xmlns="http://www.w3.org/2000/svg"><g id="Page-1" fill="none" fill-rule="evenodd"><g id="015---Lockers" fill-rule="nonzero"><path id="Shape" d="m6 51.5v4c-.0032948 1.1032019-.89679813 1.9967052-2 2-1.10116878-.0081672-1.99183278-.8988312-2-2v-4z" fill="#7f8c8d"/><path id="Shape" d="m16 51.5v4c-.0032948 1.1032019-.8967981 1.9967052-2 2-1.1011688-.0081672-1.9918328-.8988312-2-2v-4z" fill="#7f8c8d"/><path id="Shape" d="m24 51.5v4c-.0032948 1.1032019-.8967981 1.9967052-2 2-1.1011688-.0081672-1.9918328-.8988312-2-2v-4z" fill="#7f8c8d"/><path id="Shape" d="m34 51.5v4c-.0032948 1.1032019-.8967981 1.9967052-2 2-1.1011688-.0081672-1.9918328-.8988312-2-2v-4z" fill="#7f8c8d"/><path id="Shape" d="m42 51.5v4c-.0032948 1.1032019-.8967981 1.9967052-2 2-1.1011688-.0081672-1.9918328-.8988312-2-2v-4z" fill="#7f8c8d"/><path id="Shape" d="m52 51.5v4c-.0032948 1.1032019-.8967981 1.9967052-2 2-1.1011688-.0081672-1.9918328-.8988312-2-2v-4z" fill="#7f8c8d"/><path id="Shape" d="m52 0h-14c-1.1032019.0032948-1.9967052.89679813-2 2-.0032948-1.10320187-.8967981-1.9967052-2-2h-14c-1.1032019.0032948-1.9967052.89679813-2 2-.0032948-1.10320187-.8967981-1.9967052-2-2h-14c-1.10320187.0032948-1.9967052.89679813-2 2v48c.0032948 1.1032019.89679813 1.9967052 2 2h14c1.1032019-.0032948 1.9967052-.8967981 2-2 .0032948 1.1032019.8967981 1.9967052 2 2h14c1.1032019-.0032948 1.9967052-.8967981 2-2 .0032948 1.1032019.8967981 1.9967052 2 2h14c1.1032019-.0032948 1.9967052-.8967981 2-2v-48c-.0032948-1.10320187-.8967981-1.9967052-2-2z" fill="#2980ba"/><rect id="Rectangle-path" fill="#3b97d3" height="52" rx="2" width="18" x="18"/><g fill="#285680"><path id="Shape" d="m12 8h-6c-.55228475 0-1-.44771525-1-1s.44771525-1 1-1h6c.5522847 0 1 .44771525 1 1s-.4477153 1-1 1z"/><path id="Shape" d="m12 12h-6c-.55228475 0-1-.4477153-1-1s.44771525-1 1-1h6c.5522847 0 1 .4477153 1 1s-.4477153 1-1 1z"/><path id="Shape" d="m12 16h-6c-.55228475 0-1-.4477153-1-1s.44771525-1 1-1h6c.5522847 0 1 .4477153 1 1s-.4477153 1-1 1z"/><path id="Shape" d="m30 8h-6c-.5522847 0-1-.44771525-1-1s.4477153-1 1-1h6c.5522847 0 1 .44771525 1 1s-.4477153 1-1 1z"/><path id="Shape" d="m30 12h-6c-.5522847 0-1-.4477153-1-1s.4477153-1 1-1h6c.5522847 0 1 .4477153 1 1s-.4477153 1-1 1z"/><path id="Shape" d="m30 16h-6c-.5522847 0-1-.4477153-1-1s.4477153-1 1-1h6c.5522847 0 1 .4477153 1 1s-.4477153 1-1 1z"/><path id="Shape" d="m48 8h-6c-.5522847 0-1-.44771525-1-1s.4477153-1 1-1h6c.5522847 0 1 .44771525 1 1s-.4477153 1-1 1z"/><path id="Shape" d="m48 12h-6c-.5522847 0-1-.4477153-1-1s.4477153-1 1-1h6c.5522847 0 1 .4477153 1 1s-.4477153 1-1 1z"/><path id="Shape" d="m48 16h-6c-.5522847 0-1-.4477153-1-1s.4477153-1 1-1h6c.5522847 0 1 .4477153 1 1s-.4477153 1-1 1z"/></g><path id="Shape" d="m12 33c-.5522847 0-1-.4477153-1-1v-3c0-.5522847.4477153-1 1-1s1 .4477153 1 1v3c0 .5522847-.4477153 1-1 1z" fill="#95a5a5"/><path id="Shape" d="m30 33c-.5522847 0-1-.4477153-1-1v-3c0-.5522847.4477153-1 1-1s1 .4477153 1 1v3c0 .5522847-.4477153 1-1 1z" fill="#95a5a5"/><path id="Shape" d="m48 33c-.5522847 0-1-.4477153-1-1v-3c0-.5522847.4477153-1 1-1s1 .4477153 1 1v3c0 .5522847-.4477153 1-1 1z" fill="#95a5a5"/><path id="Shape" d="m7 49h-3c-.55228475 0-1-.4477153-1-1v-4c0-.5522847.44771525-1 1-1s1 .4477153 1 1v3h2c.55228475 0 1 .4477153 1 1s-.44771525 1-1 1z" fill="#fff"/><circle id="Oval" cx="12" cy="27" fill="#bdc3c7" r="2"/><circle id="Oval" cx="30" cy="27" fill="#bdc3c7" r="2"/><circle id="Oval" cx="48" cy="27" fill="#bdc3c7" r="2"/></g></g></svg>