<svg height="480pt" viewBox="-8 0 479 480" width="480pt" xmlns="http://www.w3.org/2000/svg"><path d="m152.363281 240h144c8.839844 0 16 7.164062 16 16v8c0 8.835938-7.160156 16-16 16h-144c-8.835937 0-16-7.164062-16-16v-8c0-8.835938 7.164063-16 16-16zm0 0" fill="#e4e4e2"/><path d="m256.363281 168.71875v-48.71875h-64v48.71875c-23.074219 3.902344-39.976562 23.878906-40 47.28125v24h144v-24c-.023437-23.402344-16.921875-43.378906-40-47.28125zm0 0" fill="#6cbae5"/><path d="m192.363281 150.007812h64v17.992188h-64zm0 0" fill="#4799cf"/><g fill="#def6f9"><path d="m182.605469 344.34375c-.300781.003906-.597657-.011719-.898438-.046875-4.375-.492187-7.53125-4.421875-7.0625-8.800781l2.671875-23.847656c.492188-4.390626 4.449219-7.554688 8.839844-7.0625 4.390625.488281 7.554688 4.445312 7.066406 8.839843l-2.675781 23.855469c-.472656 4.027344-3.886719 7.0625-7.941406 7.0625zm0 0"/><path d="m178.15625 384.097656c-.300781 0-.601562-.019531-.902344-.050781-4.371094-.492187-7.523437-4.425781-7.058594-8.800781l.890626-7.949219c.492187-4.394531 4.449218-7.554687 8.84375-7.0625 4.390624.496094 7.550781 4.453125 7.058593 8.84375l-.886719 7.953125c-.476562 4.027344-3.890624 7.0625-7.945312 7.066406zm0 0"/><path d="m171.027344 447.703125c-.296875 0-.597656-.015625-.894532-.046875-4.390624-.488281-7.554687-4.449219-7.0625-8.839844l3.558594-31.808594c.492188-4.390624 4.453125-7.550781 8.84375-7.058593 4.390625.492187 7.550782 4.449219 7.058594 8.84375l-3.558594 31.800781c-.453125 4.046875-3.871094 7.105469-7.945312 7.109375zm0 0"/><path d="m167.46875 479.503906c-.300781 0-.605469-.015625-.902344-.046875-4.390625-.496093-7.550781-4.453125-7.058594-8.839843l.855469-7.953126c.492188-4.390624 4.449219-7.554687 8.839844-7.0625 4.394531.488282 7.554687 4.445313 7.066406 8.839844l-.890625 7.949219c-.449218 4.035156-3.851562 7.09375-7.910156 7.113281zm0 0"/><path d="m265.164062 344.34375c-4.070312-.003906-7.488281-3.058594-7.941406-7.105469l-2.675781-23.855469c-.488281-4.394531 2.675781-8.351562 7.070313-8.84375 4.394531-.488281 8.351562 2.675782 8.84375 7.070313l2.671874 23.847656c.46875 4.375-2.6875 8.308594-7.0625 8.800781-.300781.046876-.601562.078126-.90625.085938zm0 0"/><path d="m269.660156 384.097656c-4.070312-.003906-7.488281-3.0625-7.945312-7.105468l-.886719-7.953126c-.492187-4.390624 2.667969-8.351562 7.0625-8.84375 4.390625-.492187 8.347656 2.667969 8.84375 7.0625l.886719 7.949219c.46875 4.378907-2.691406 8.3125-7.0625 8.800781-.296875.046876-.597656.074219-.898438.089844zm0 0"/><path d="m276.796875 447.703125c-4.074219-.003906-7.492187-3.0625-7.945313-7.109375l-3.566406-31.792969c-.492187-4.394531 2.667969-8.355469 7.0625-8.847656 4.394532-.492187 8.355469 2.667969 8.847656 7.0625l3.5625 31.808594c.488282 4.390625-2.671874 8.351562-7.066406 8.839843-.296875.027344-.59375.042969-.894531.039063zm0 0"/><path d="m280.363281 479.503906c-4.070312-.003906-7.492187-3.066406-7.941406-7.113281l-.890625-7.949219c-.488281-4.394531 2.671875-8.351562 7.066406-8.839844 4.390625-.492187 8.347656 2.671876 8.839844 7.0625l.886719 7.953126c.492187 4.390624-2.671875 8.347656-7.0625 8.839843-.296875.03125-.597657.046875-.898438.046875zm0 0"/><path d="m224.363281 328c-4.417969 0-8-3.582031-8-8v-8c0-4.417969 3.582031-8 8-8s8 3.582031 8 8v8c0 4.417969-3.582031 8-8 8zm0 0"/><path d="m224.363281 392c-4.417969 0-8-3.582031-8-8v-32c0-4.417969 3.582031-8 8-8s8 3.582031 8 8v32c0 4.417969-3.582031 8-8 8zm0 0"/><path d="m224.363281 480c-4.417969 0-8-3.582031-8-8v-24c0-4.417969 3.582031-8 8-8s8 3.582031 8 8v24c0 4.417969-3.582031 8-8 8zm0 0"/><path d="m224.363281 424c-4.417969 0-8-3.582031-8-8v-8c0-4.417969 3.582031-8 8-8s8 3.582031 8 8v8c0 4.417969-3.582031 8-8 8zm0 0"/><path d="m142.765625 329.449219c-.539063-.003907-1.074219-.058594-1.601563-.160157-2.082031-.421874-3.90625-1.65625-5.078124-3.425781-1.175782-1.769531-1.59375-3.933593-1.167969-6.015625l1.597656-7.839844c.972656-4.234374 5.144531-6.917968 9.398437-6.050781 4.257813.871094 7.039063 4.976563 6.273438 9.25l-1.597656 7.839844c-.761719 3.71875-4.027344 6.394531-7.824219 6.402344zm0 0"/><path d="m129.964844 392.160156c-.539063 0-1.074219-.050781-1.601563-.160156-4.324219-.882812-7.117187-5.105469-6.238281-9.433594l6.398438-31.359375c.511718-2.859375 2.535156-5.214843 5.28125-6.15625 2.746093-.941406 5.789062-.320312 7.949218 1.625 2.15625 1.941407 3.09375 4.902344 2.441406 7.730469l-6.398437 31.363281c-.761719 3.71875-4.035156 6.386719-7.832031 6.390625zm0 0"/><path d="m112.429688 478.398438c-.539063.003906-1.074219-.050782-1.601563-.160157-4.328125-.878906-7.125-5.101562-6.246094-9.429687l4.796875-23.519532c.515625-2.859374 2.535156-5.214843 5.28125-6.15625 2.75-.941406 5.789063-.320312 7.949219 1.621094 2.15625 1.945313 3.09375 4.902344 2.445313 7.734375l-4.800782 23.519531c-.765625 3.714844-4.03125 6.386719-7.824218 6.390626zm0 0"/><path d="m123.566406 423.519531c-.539062 0-1.074218-.050781-1.601562-.160156-4.328125-.882813-7.121094-5.105469-6.238282-9.429687l1.597657-7.839844c.511719-2.859375 2.535156-5.214844 5.28125-6.160156 2.746093-.941407 5.789062-.320313 7.945312 1.625 2.160157 1.941406 3.09375 4.902343 2.445313 7.734374l-1.597656 7.839844c-.765626 3.71875-4.035157 6.390625-7.832032 6.390625zm0 0"/><path d="m305.964844 329.449219c-3.796875-.007813-7.066406-2.683594-7.824219-6.402344l-1.601563-7.839844c-.699218-2.847656.214844-5.851562 2.386719-7.824219 2.167969-1.976562 5.246094-2.605468 8.015625-1.640624 2.769532.96875 4.789063 3.371093 5.261719 6.265624l1.601563 7.839844c.425781 2.082032.003906 4.246094-1.167969 6.015625s-3 3.003907-5.078125 3.425781c-.527344.101563-1.058594.15625-1.59375.160157zm0 0"/><path d="m318.707031 392.160156c-3.796875-.003906-7.070312-2.679687-7.832031-6.398437l-6.398438-31.363281c-.648437-2.828126.285157-5.789063 2.445313-7.730469 2.15625-1.945313 5.199219-2.566407 7.945313-1.625 2.75.941406 4.769531 3.296875 5.28125 6.15625l6.398437 31.359375c.886719 4.332031-1.90625 8.558594-6.238281 9.441406-.527344.109375-1.0625.160156-1.601563.160156zm0 0"/><path d="m336.246094 478.398438c-3.796875-.003907-7.066406-2.679688-7.824219-6.398438l-4.800781-23.519531c-.648438-2.832031.285156-5.792969 2.445312-7.734375 2.15625-1.941406 5.199219-2.5625 7.945313-1.621094 2.746093.941406 4.769531 3.296875 5.28125 6.15625l4.800781 23.519531c.878906 4.328125-1.914062 8.546875-6.242188 9.429688-.527343.113281-1.066406.167969-1.605468.167969zm0 0"/><path d="m325.085938 423.519531c-3.800782-.003906-7.074219-2.675781-7.832032-6.398437l-1.601562-7.839844c-.648438-2.832031.285156-5.792969 2.445312-7.734375 2.15625-1.945313 5.199219-2.566406 7.945313-1.625 2.75.941406 4.769531 3.300781 5.28125 6.15625l1.601562 7.84375c.878907 4.324219-1.914062 8.546875-6.242187 9.429687-.523438.113282-1.0625.167969-1.597656.167969zm0 0"/></g><path d="m313.964844 29h-32.441406c-9.816407 0-19.089844 4.503906-25.160157 12.222656l-56 78.777344h48l39.203125-56c1.515625-1.898438 3.816406-3 6.246094-3h138.550781v-32zm0 0" fill="#bdbdbd"/><path d="m281.523438 42c-9.816407 0-19.089844 4.503906-25.160157 12.222656l-46.757812 65.777344h38.757812l39.203125-56c1.515625-1.898438 3.816406-3 6.246094-3h138.550781v-19zm0 0" fill="#b6b6b6"/><path d="m440.363281 8h16v72h-16c-8.835937 0-16-7.164062-16-16v-40c0-8.835938 7.164063-16 16-16zm0 0" fill="#eaeae8"/><path d="m424.363281 40v24c0 8.835938 7.164063 16 16 16h16v-56h-16c-8.835937 0-16 7.164062-16 16zm0 0" fill="#dbdbdb"/><path d="m408.363281 312c0 8.835938-7.160156 16-16 16-8.835937 0-16-7.164062-16-16s7.164063-16 16-16c8.839844 0 16 7.164062 16 16zm0 0" fill="#c0f5f9"/><path d="m64.363281 312c0 8.835938-7.160156 16-16 16-8.835937 0-16-7.164062-16-16s7.164063-16 16-16c8.839844 0 16 7.164062 16 16zm0 0" fill="#c0f5f9"/><path d="m432.363281 424c0 8.835938-7.160156 16-16 16-8.835937 0-16-7.164062-16-16s7.164063-16 16-16c8.839844 0 16 7.164062 16 16zm0 0" fill="#c0f5f9"/><path d="m104.363281 216c0 8.835938-7.160156 16-16 16-8.835937 0-16-7.164062-16-16s7.164063-16 16-16c8.839844 0 16 7.164062 16 16zm0 0" fill="#c0f5f9"/><path d="m432.363281 280c0 13.253906-10.742187 24-24 24-13.253906 0-24-10.746094-24-24s10.746094-24 24-24c13.257813 0 24 10.746094 24 24zm0 0" fill="#c0f5f9"/><path d="m406.019531 303.761719c-2.878906-4.796875-8.058593-7.742188-13.65625-7.761719-.535156.027344-1.070312.085938-1.597656.167969 3.972656 4.328125 9.40625 7.035156 15.253906 7.59375zm0 0" fill="#b8eaee"/><path d="m56.363281 288c0 13.253906-10.742187 24-24 24-13.253906 0-24-10.746094-24-24s10.746094-24 24-24c13.257813 0 24 10.746094 24 24zm0 0" fill="#c0f5f9"/><path d="m54.492188 297.296875c-4.914063-2.105469-10.5625-1.585937-15.011719 1.378906-4.449219 2.964844-7.101563 7.976563-7.050781 13.324219 9.640624-.023438 18.328124-5.816406 22.0625-14.703125zm0 0" fill="#b8eaee"/><path d="m72.363281 416c0 13.253906-10.742187 24-24 24-13.253906 0-24-10.746094-24-24s10.746094-24 24-24c13.257813 0 24 10.746094 24 24zm0 0" fill="#c0f5f9"/><path d="m182.605469 344.34375c4.070312-.003906 7.488281-3.058594 7.941406-7.105469l2.675781-23.855469c.488282-4.390624-2.675781-8.347656-7.066406-8.839843-4.390625-.488281-8.347656 2.671875-8.839844 7.066406l-2.671875 23.847656c-.46875 4.375 2.6875 8.308594 7.0625 8.800781.296875.046876.597657.078126.898438.085938zm0 0"/><path d="m171.085938 367.257812-.890626 7.949219c-.464843 4.375 2.6875 8.308594 7.058594 8.800781.300782.03125.601563.046876.902344.046876 4.070312 0 7.488281-3.058594 7.945312-7.101563l.886719-7.953125c.492188-4.390625-2.667969-8.351562-7.058593-8.84375-4.394532-.492188-8.351563 2.667969-8.84375 7.058594zm0 0"/><path d="m166.628906 407.007812-3.558594 31.808594c-.492187 4.390625 2.671876 8.351563 7.0625 8.839844.296876.03125.597657.046875.894532.046875 4.074218-.003906 7.492187-3.0625 7.945312-7.109375l3.558594-31.800781c.492188-4.394531-2.667969-8.351563-7.058594-8.84375-4.390625-.492188-8.351562 2.667969-8.84375 7.058593zm0 0"/><path d="m159.507812 470.617188c-.492187 4.386718 2.667969 8.34375 7.058594 8.839843.296875.03125.601563.046875.902344.046875 4.070312-.003906 7.492188-3.066406 7.945312-7.113281l.886719-7.949219c.492188-4.402344-2.679687-8.367187-7.078125-8.855468-4.402344-.492188-8.367187 2.675781-8.859375 7.078124zm0 0"/><path d="m261.652344 304.542969c-4.390625.492187-7.554688 4.449219-7.0625 8.839843l2.671875 23.855469c.453125 4.046875 3.875 7.101563 7.941406 7.105469.304687.003906.605469-.011719.90625-.046875 4.375-.492187 7.53125-4.421875 7.0625-8.800781l-2.671875-23.847656c-.222656-2.117188-1.285156-4.058594-2.945312-5.390626-1.660157-1.335937-3.785157-1.953124-5.902344-1.714843zm0 0"/><path d="m267.882812 360.199219c-4.386718.496093-7.546874 4.453125-7.054687 8.839843l.886719 7.953126c.457031 4.042968 3.875 7.101562 7.945312 7.105468.300782 0 .597656-.019531.898438-.050781 4.371094-.488281 7.53125-4.421875 7.0625-8.800781l-.886719-7.949219c-.230469-2.117187-1.289063-4.054687-2.949219-5.386719-1.664062-1.332031-3.785156-1.949218-5.902344-1.710937zm0 0"/><path d="m272.363281 399.953125c-4.375.488281-7.53125 4.421875-7.0625 8.800781l3.566407 31.796875c.453124 4.046875 3.875 7.109375 7.945312 7.113281.300781 0 .597656-.015624.894531-.046874 4.394531-.492188 7.558594-4.449219 7.066407-8.839844l-3.609376-31.769532c-.492187-4.371093-4.425781-7.523437-8.800781-7.054687zm0 0"/><path d="m271.566406 464.441406.886719 7.949219c.453125 4.046875 3.871094 7.109375 7.945313 7.113281.296874 0 .597656-.015625.894531-.046875 4.390625-.492187 7.554687-4.449219 7.0625-8.839843l-.886719-7.953126c-.492188-4.390624-4.449219-7.554687-8.839844-7.0625-4.390625.488282-7.554687 4.445313-7.0625 8.839844zm0 0"/><path d="m224.363281 328c4.417969 0 8-3.582031 8-8v-8c0-4.417969-3.582031-8-8-8s-8 3.582031-8 8v8c0 4.417969 3.582031 8 8 8zm0 0"/><path d="m216.363281 384c0 4.417969 3.582031 8 8 8s8-3.582031 8-8v-32c0-4.417969-3.582031-8-8-8s-8 3.582031-8 8zm0 0"/><path d="m216.363281 472c0 4.417969 3.582031 8 8 8s8-3.582031 8-8v-24c0-4.417969-3.582031-8-8-8s-8 3.582031-8 8zm0 0"/><path d="m216.363281 416c0 4.417969 3.582031 8 8 8s8-3.582031 8-8v-8c0-4.417969-3.582031-8-8-8s-8 3.582031-8 8zm0 0"/><path d="m145.902344 305.769531c-4.328125-.875-8.542969 1.914063-9.425782 6.238281l-1.601562 7.839844c-.421875 2.082032-.003906 4.246094 1.167969 6.015625s3 3.003907 5.082031 3.425781c.527344.101563 1.0625.15625 1.601562.160157 3.792969-.007813 7.0625-2.683594 7.820313-6.402344l1.601563-7.839844c.425781-2.078125.003906-4.242187-1.167969-6.015625-1.171875-1.769531-3-3-5.078125-3.421875zm0 0"/><path d="m128.5 351.199219-6.398438 31.359375c-.425781 2.085937-.003906 4.25 1.171876 6.019531 1.175781 1.773437 3.007812 3.003906 5.089843 3.421875.527344.109375 1.0625.160156 1.601563.160156 3.800781-.003906 7.070312-2.679687 7.832031-6.398437l6.398437-31.363281c.652344-2.828126-.285156-5.789063-2.441406-7.730469-2.160156-1.945313-5.203125-2.566407-7.949218-1.625-2.746094.941406-4.769532 3.296875-5.28125 6.15625zm0 0"/><path d="m109.363281 445.28125-4.796875 23.519531c-.882812 4.328125 1.917969 8.550781 6.246094 9.429688.527344.109375 1.0625.164062 1.601562.160156 3.792969-.003906 7.0625-2.679687 7.824219-6.398437l4.796875-23.519532c.652344-2.832031-.285156-5.792968-2.441406-7.734375-2.160156-1.941406-5.203125-2.5625-7.949219-1.621093-2.746093.941406-4.765625 3.296874-5.28125 6.15625zm0 0"/><path d="m117.339844 406.089844-1.597656 7.839844c-.882813 4.324218 1.910156 8.546874 6.238281 9.429687.527343.109375 1.0625.160156 1.601562.160156 3.796875-.003906 7.070313-2.675781 7.832031-6.398437l1.597657-7.839844c.648437-2.832031-.285157-5.792969-2.445313-7.734375-2.15625-1.945313-5.199218-2.566406-7.945312-1.625s-4.769532 3.300781-5.28125 6.15625zm0 0"/><path d="m312.195312 312c-.472656-2.894531-2.492187-5.300781-5.261718-6.265625-2.769532-.964844-5.847656-.335937-8.015625 1.640625-2.171875 1.972656-3.085938 4.976562-2.386719 7.824219l1.601562 7.839843c.757813 3.71875 4.027344 6.394532 7.824219 6.402344.535157-.003906 1.074219-.058594 1.601563-.160156 2.078125-.421875 3.90625-1.65625 5.078125-3.425781s1.59375-3.933594 1.167969-6.015625zm0 0"/><path d="m320.171875 351.199219c-.511719-2.859375-2.53125-5.214844-5.28125-6.15625-2.746094-.941407-5.789063-.320313-7.945313 1.625-2.160156 1.941406-3.09375 4.902343-2.445312 7.730469l6.402344 31.363281c.757812 3.71875 4.03125 6.394531 7.832031 6.398437.535156 0 1.070313-.050781 1.597656-.160156 4.328125-.882812 7.121094-5.105469 6.242188-9.433594zm0 0"/><path d="m323.636719 448.472656 4.800781 23.519532c.757812 3.71875 4.027344 6.394531 7.824219 6.398437.535156.003906 1.074219-.050781 1.597656-.160156 4.328125-.882813 7.121094-5.101563 6.242187-9.429688l-4.800781-23.519531c-.511719-2.859375-2.535156-5.214844-5.28125-6.15625-2.746093-.941406-5.789062-.320312-7.945312 1.621094-2.160157 1.941406-3.09375 4.902344-2.445313 7.734375zm0 0"/><path d="m331.332031 406.089844c-.511719-2.859375-2.53125-5.214844-5.28125-6.160156-2.746093-.941407-5.789062-.320313-7.945312 1.625-2.160157 1.941406-3.09375 4.902343-2.445313 7.734374l1.601563 7.839844c.757812 3.722656 4.03125 6.394532 7.832031 6.398438.535156.003906 1.074219-.050782 1.597656-.160156 4.328125-.882813 7.121094-5.105469 6.242188-9.429688zm0 0"/><path d="m456.363281 0h-16c-12.058593.0351562-22.207031 9.03125-23.695312 21h-135.136719c-12.410156-.007812-24.121094 5.753906-31.6875 15.59375l-53.613281 75.40625h-3.867188c-4.417969 0-8 3.582031-8 8v42.398438c-23.691406 7.09375-39.941406 28.871093-40 53.601562v17.472656c-9.554687 3.378906-15.957031 12.394532-16 22.527344v8c0 13.253906 10.746094 24 24 24h144c13.257813 0 24-10.746094 24-24v-8c-.039062-10.132812-6.445312-19.148438-16-22.527344v-17.472656c-.050781-24.734375-16.304687-46.511719-40-53.601562v-42.398438c-.003906-2.097656-.835937-4.109375-2.308593-5.601562l31.765624-45.390626h123.082032c2.359375 11.074219 12.140625 18.988282 23.460937 18.992188h16c4.417969 0 8-3.582031 8-8v-72c0-4.417969-3.582031-8-8-8zm-256 128h48v32h-48zm104 128v8c0 4.417969-3.582031 8-8 8h-144c-4.417969 0-8-3.582031-8-8v-8c0-4.417969 3.582031-8 8-8h144c4.417969 0 8 3.582031 8 8zm-16-40v16h-128v-16c.027344-22.082031 17.921875-39.972656 40-40h48c22.082031.027344 39.976563 17.917969 40 40zm128-163h-122.542969c-5.03125.015625-9.765624 2.386719-12.800781 6.398438l-36.824219 52.601562h-28.328124l46.785156-65.832031c4.539062-5.808594 11.507812-9.191407 18.878906-9.167969h134.832031zm32 19h-8c-4.417969 0-8-3.582031-8-8v-40c0-4.417969 3.582031-8 8-8h8zm0 0"/><path d="m368.363281 312c0 13.253906 10.746094 24 24 24 13.257813 0 24-10.746094 24-24 0-.367188-.125-.71875-.140625-1.089844 12.929688-3.300781 22.449219-14.292968 23.867188-27.5625 1.417968-13.273437-5.566406-26.027344-17.507813-31.984375-11.941406-5.960937-26.332031-3.867187-36.082031 5.246094s-12.808594 23.328125-7.671875 35.648437c-6.535156 4.445313-10.453125 11.835938-10.464844 19.742188zm40-48c8.839844 0 16 7.164062 16 16s-7.160156 16-16 16c-8.835937 0-16-7.164062-16-16s7.164063-16 16-16zm-19.765625 40.96875c3.425782 2.730469 7.378906 4.722656 11.613282 5.847656.082031.390625.132812.785156.152343 1.183594 0 4.417969-3.582031 8-8 8s-8-3.582031-8-8c.03125-2.9375 1.652344-5.628906 4.234375-7.03125zm0 0"/><path d="m392.363281 424c0 13.253906 10.746094 24 24 24 13.257813 0 24-10.746094 24-24s-10.742187-24-24-24c-13.253906 0-24 10.746094-24 24zm32 0c0 4.417969-3.582031 8-8 8s-8-3.582031-8-8 3.582031-8 8-8 8 3.582031 8 8zm0 0"/><path d="m88.363281 192c-13.253906 0-24 10.746094-24 24s10.746094 24 24 24c13.257813 0 24-10.746094 24-24s-10.742187-24-24-24zm0 32c-4.417969 0-8-3.582031-8-8s3.582031-8 8-8 8 3.582031 8 8-3.582031 8-8 8zm0 0"/><path d="m32.363281 256c-16.304687.070312-29.949219 12.386719-31.683593 28.597656-1.730469 16.214844 9.003906 31.136719 24.925781 34.648438 3.039062 9.730468 11.914062 16.464844 22.101562 16.773437 10.1875.3125 19.453125-5.867187 23.082031-15.394531 3.628907-9.523438.820313-20.304688-6.992187-26.847656 1.792969-9.347656-.699219-19.003906-6.785156-26.320313-6.085938-7.316406-15.128907-11.519531-24.648438-11.457031zm-6.140625 46.769531c-7.414062-3.082031-11.394531-11.179687-9.308594-18.933593 2.085938-7.75 9.59375-12.757813 17.550782-11.703126 7.957031 1.054688 13.902344 7.839844 13.898437 15.867188-9.683593.003906-18.417969 5.828125-22.140625 14.769531zm22.140625 17.230469c-4.417969 0-8-3.582031-8-8s3.582031-8 8-8 8 3.582031 8 8-3.582031 8-8 8zm0 0"/><path d="m48.363281 448c17.675781 0 32-14.328125 32-32s-14.324219-32-32-32c-17.671875 0-32 14.328125-32 32s14.328125 32 32 32zm0-48c8.839844 0 16 7.164062 16 16s-7.160156 16-16 16c-8.835937 0-16-7.164062-16-16s7.164063-16 16-16zm0 0"/></svg>