<svg id="Layer_1" enable-background="new 0 0 512 512" height="512" viewBox="0 0 512 512" width="512" xmlns="http://www.w3.org/2000/svg"><g><g clip-rule="evenodd" fill-rule="evenodd"><path d="m32.259 15.902h326.158c13.606 0 24.746 11.141 24.746 24.747v433.621c0 13.607-11.14 24.747-24.746 24.747h-326.158c-13.607 0-24.747-11.14-24.747-24.747v-433.621c0-13.605 11.14-24.747 24.747-24.747z" fill="#f9f6f6"/><path d="m354.052 104.997h29.111v180.002h-29.111z" fill="#e2d8ec"/><path d="m190.887 433.054c72.171 0 131.047-58.876 131.047-131.047s-58.875-131.047-131.047-131.047c-72.199 0-131.047 58.876-131.047 131.047s58.848 131.047 131.047 131.047z" fill="#d5c6e4"/><path d="m190.887 170.96c72.37 0 131.047 58.678 131.047 131.047 0 72.37-58.678 131.047-131.047 131.047-4.989 0-9.893-.283-14.74-.822 65.453-7.313 116.334-62.845 116.334-130.225 0-67.408-50.881-122.912-116.334-130.225 4.847-.539 9.751-.822 14.74-.822z" fill="#c6b4da"/><path d="m190.887 385.431c45.951 0 83.424-37.474 83.424-83.424s-37.474-83.425-83.424-83.425-83.424 37.475-83.424 83.425 37.474 83.424 83.424 83.424z" fill="#9dc6fb"/><path d="m190.887 218.582c46.064 0 83.424 37.361 83.424 83.425s-37.36 83.424-83.424 83.424c-4.989 0-9.836-.453-14.57-1.275 39.119-6.888 68.855-41.046 68.855-82.149s-29.736-75.261-68.855-82.149c4.734-.851 9.581-1.276 14.57-1.276z" fill="#80b4fb"/><path d="m7.512 104.997h375.651v-64.348c0-13.606-11.14-24.747-24.746-24.747h-326.158c-13.607 0-24.747 11.141-24.747 24.747z" fill="#e2d8ec"/><path d="m354.052 104.997h29.111v-64.348c0-13.606-11.14-24.747-24.746-24.747h-29.112c13.606 0 24.747 11.141 24.747 24.747z" fill="#d5c6e4"/><path d="m233.946 230.544c-12.586-7.597-27.326-11.962-43.059-11.962-15.761 0-30.501 4.366-43.059 11.962v26.759c0 14.967 12.246 27.242 27.213 27.242h31.664c14.995 0 27.241-12.274 27.241-27.242z" fill="#f9f6f6"/><path d="m233.946 230.544c-12.586-7.597-27.326-11.962-43.059-11.962-4.989 0-9.836.425-14.57 1.276 6.689 1.162 13.124 3.146 19.163 5.811 10.432 4.621 9.326 3.43 9.326 14.003v17.631c0 14.967-12.246 27.242-27.213 27.242h29.112c14.995 0 27.241-12.274 27.241-27.242z" fill="#e2d8ec"/><path d="m309.349 499.017h175.778c9.865 0 17.83-8.986 17.83-17.83s-5.045-14.457-12.047-16.895c-1.389-.482-1.701-1.276 0-1.899 6.945-2.551 12.047-8.05 12.047-16.895 0-8.816-7.965-17.83-17.83-17.83l-90.454-9.297-85.324 9.297c-19.616 0-35.688 16.073-35.688 35.689-.001 19.616 16.071 35.66 35.688 35.66z" fill="#ffe07d"/><path d="m309.349 427.668h175.778c9.865 0 17.83-8.986 17.83-17.83 0-8.845-5.045-14.429-12.047-16.867-1.389-.482-1.701-1.304 0-1.928 6.945-2.551 12.047-8.022 12.047-16.866s-7.965-17.83-17.83-17.83l-86.968-9.326-88.811 9.326c-19.531 2.041-35.688 16.044-35.688 35.66 0 19.617 16.072 35.661 35.689 35.661z" fill="#95d6a4"/><path d="m310.88 356.348h175.807c9.836 0 17.83-9.015 17.83-17.83 0-8.844-5.074-14.457-12.076-16.895-1.36-.482-1.7-1.275 0-1.899 6.974-2.58 12.076-8.051 12.076-16.895s-7.994-17.83-17.83-17.83h-.028-175.779c-19.617 0-35.661 16.044-35.661 35.66s16.044 35.689 35.661 35.689z" fill="#dd636e"/><path d="m486.686 356.348c9.836 0 17.83-9.015 17.83-17.83 0-8.844-5.074-14.457-12.076-16.895-1.36-.482-1.7-1.275 0-1.899 6.974-2.58 12.076-8.051 12.076-16.895s-7.994-17.83-17.83-17.83h-29.085c9.809.028 17.774 9.014 17.774 17.83 0 8.844-5.104 14.315-12.048 16.895-1.701.624-1.39 1.418 0 1.899 7.001 2.438 12.048 8.05 12.048 16.895 0 8.815-7.966 17.83-17.831 17.83z" fill="#dd636e"/><path d="m485.127 427.668c9.865 0 17.83-8.986 17.83-17.83 0-8.845-5.045-14.429-12.047-16.867-1.389-.482-1.701-1.304 0-1.928 6.945-2.551 12.047-8.022 12.047-16.866s-7.965-17.83-17.83-17.83h-29.084c9.836.028 17.803 8.986 17.803 17.83s-5.103 14.315-12.077 16.866c-1.7.624-1.36 1.446 0 1.928 7.031 2.438 12.077 8.022 12.077 16.867 0 8.844-7.995 17.83-17.831 17.83z" fill="#78c2a4"/><path d="m485.127 499.017c9.865 0 17.83-8.986 17.83-17.83s-5.045-14.457-12.047-16.895c-1.389-.482-1.701-1.276 0-1.899 6.945-2.551 12.047-8.05 12.047-16.895 0-8.816-7.965-17.83-17.83-17.83h-29.084c9.836.028 17.803 9.014 17.803 17.83 0 8.845-5.103 14.344-12.077 16.895-1.7.624-1.36 1.417 0 1.899 7.031 2.438 12.077 8.05 12.077 16.895 0 8.844-7.995 17.83-17.831 17.83z" fill="#ffd064"/><path d="m63.355 187.571c14.741 0 26.703-11.962 26.703-26.731s-11.962-26.731-26.703-26.731c-14.769 0-26.73 11.962-26.73 26.731 0 14.768 11.961 26.731 26.73 26.731zm263.965 0c-14.768 0-26.73-11.962-26.73-26.731s11.963-26.731 26.73-26.731c14.74 0 26.731 11.962 26.731 26.731.001 14.768-11.991 26.731-26.731 26.731z" fill="#d5c6e4"/><path d="m63.355 187.571c14.741 0 26.703-11.962 26.703-26.731s-11.962-26.731-26.703-26.731c-5.386 0-10.375 1.587-14.57 4.309 7.313 4.79 12.161 13.04 12.161 22.422 0 9.383-4.848 17.632-12.161 22.394 4.195 2.749 9.184 4.337 14.57 4.337zm263.965 0c-5.386 0-10.374-1.587-14.569-4.337 7.314-4.762 12.16-13.011 12.16-22.394s-4.847-17.632-12.16-22.422c4.195-2.721 9.184-4.309 14.569-4.309 14.74 0 26.731 11.962 26.731 26.731.001 14.768-11.991 26.731-26.731 26.731z" fill="#c6b4da"/></g><path d="m309.349 505.055h-277.09c-8.873 0-16.952-3.628-22.792-9.468-5.838-5.839-9.467-13.89-9.467-22.762v-433.621c0-8.872 3.629-16.951 9.468-22.791 5.84-5.84 13.919-9.468 22.792-9.468h326.158c8.872 0 16.923 3.628 22.79 9.468 5.841 5.839 9.44 13.918 9.44 22.791v236.837h96.039c6.974 0 13.323 2.835 17.915 7.427 4.563 4.592 7.398 10.913 7.398 17.915 0 6.945-2.807 13.238-7.37 17.831 4.563 4.592 7.37 10.885 7.37 17.83 0 7.115-2.92 13.805-8.136 18.624 4.11 4.508 6.605 10.489 6.605 17.065 0 6.945-2.806 13.238-7.37 17.83 4.564 4.564 7.37 10.885 7.37 17.831 0 6.945-2.806 13.238-7.342 17.83 4.536 4.563 7.342 10.885 7.342 17.829 0 6.945-2.806 13.267-7.37 17.831 4.564 4.592 7.37 10.885 7.37 17.83 0 7.002-2.834 13.352-7.427 17.915-4.875 4.876-11.055 7.342-17.915 7.427h-175.778zm17.971-311.446c-9.467 0-18-3.827-24.207-10.035-6.181-6.179-10.008-14.74-10.008-24.179 0-9.468 3.827-18.029 10.008-24.208 6.207-6.208 14.74-10.035 24.207-10.035 9.439 0 18 3.827 24.208 10.035 6.18 6.18 10.007 14.741 10.007 24.208 0 9.439-3.827 18-10.007 24.179-6.208 6.208-14.768 10.035-24.208 10.035zm-13.605-20.637c3.486 3.487 8.305 5.641 13.605 5.641 5.301 0 10.12-2.154 13.578-5.641 3.486-3.486 5.641-8.277 5.641-13.578 0-5.329-2.154-10.12-5.641-13.607-3.458-3.487-8.277-5.641-13.578-5.641s-10.119 2.154-13.605 5.641c-3.459 3.487-5.613 8.278-5.613 13.607 0 5.301 2.154 10.092 5.613 13.578zm-250.36 5.641c5.301 0 10.12-2.154 13.579-5.641 3.486-3.486 5.641-8.277 5.641-13.578 0-5.329-2.154-10.12-5.641-13.607-3.459-3.487-8.277-5.641-13.579-5.641-5.329 0-10.12 2.154-13.606 5.641-3.458 3.487-5.612 8.278-5.612 13.607 0 5.301 2.154 10.091 5.612 13.578 3.486 3.487 8.277 5.641 13.606 5.641zm24.18 4.961c-6.18 6.208-14.74 10.035-24.18 10.035-9.468 0-18-3.827-24.208-10.035-6.179-6.179-10.034-14.74-10.034-24.179 0-9.468 3.855-18.029 10.034-24.208 6.208-6.208 14.74-10.035 24.208-10.035 9.44 0 18 3.827 24.18 10.035 6.208 6.18 10.035 14.741 10.035 24.208 0 9.438-3.827 18-10.035 24.179zm399.151 128.127c2.806 0 5.329-.992 7.314-3.004 1.842-1.843 3.005-4.451 3.005-7.314s-1.163-5.442-3.033-7.314c-1.871-1.871-4.45-3.033-7.285-3.033-58.621 0-117.215 0-175.807 0-7.739 0-14.77 3.175-19.9 8.277-5.102 5.131-8.277 12.161-8.277 19.9 0 7.738 3.175 14.768 8.277 19.899 5.131 5.103 12.161 8.277 19.9 8.277h175.807c2.835 0 5.414-1.163 7.285-3.033 1.87-1.871 3.033-4.451 3.033-7.313 0-2.863-1.163-5.471-3.005-7.313-1.984-2.012-4.508-3.004-7.314-3.004h-159.536c-4.139 0-7.512-3.373-7.512-7.512s3.373-7.513 7.512-7.513zm-1.53 71.349c.17 0 .34 0 .51.028 2.636-.142 5.018-1.275 6.774-3.033 1.871-1.871 3.033-4.45 3.033-7.314 0-2.863-1.162-5.442-3.033-7.313-1.87-1.871-4.422-3.033-7.257-3.033-58.621 0-117.242 0-175.835 0-7.738 0-14.797 3.175-19.899 8.277s-8.277 12.161-8.277 19.899c0 7.739 3.175 14.769 8.277 19.872 5.103 5.131 12.161 8.277 19.899 8.277h175.778c2.863 0 5.443-1.134 7.313-3.004 1.871-1.871 3.033-4.479 3.033-7.313 0-2.892-1.162-5.471-3.033-7.342-1.757-1.757-4.139-2.892-6.774-3.005-.17 0-.34 0-.51 0h-159.535c-4.139 0-7.512-3.345-7.512-7.483s3.373-7.512 7.512-7.512h159.536zm0 71.349c2.806 0 5.301-1.021 7.284-3.005 1.871-1.871 3.033-4.479 3.033-7.342s-1.162-5.442-3.033-7.313c-1.87-1.871-4.45-3.005-7.313-3.005h-175.778c-7.738 0-14.797 3.146-19.899 8.277-5.102 5.103-8.277 12.133-8.277 19.872s3.175 14.797 8.277 19.899c5.103 5.103 12.161 8.278 19.899 8.278h175.778c2.863 0 5.443-1.162 7.313-3.033 1.871-1.871 3.033-4.451 3.033-7.314s-1.162-5.442-3.033-7.313c-1.983-1.984-4.478-3.005-7.284-3.005h-159.536c-4.139 0-7.512-3.373-7.512-7.512s3.373-7.483 7.512-7.483h159.536zm-109.505-178.358v-165.006h-360.655v361.79c0 4.733 1.956 9.042 5.074 12.161 3.147 3.118 7.456 5.074 12.19 5.074h244.433c-6.548-7.569-10.516-17.434-10.516-28.177 0-11.877 4.847-22.678 12.671-30.473 1.898-1.927 3.996-3.657 6.235-5.187-2.239-1.531-4.337-3.26-6.235-5.188-2.863-2.863-5.329-6.095-7.313-9.666-10.347 7.54-21.827 13.691-34.101 18.142-14.599 5.244-30.274 8.135-46.546 8.135-37.871 0-72.142-15.364-96.946-40.168-24.803-24.803-40.167-59.074-40.167-96.917 0-37.871 15.364-72.143 40.167-96.946 24.804-24.804 59.075-40.167 96.946-40.167 34.498 0 66.048 12.784 90.171 33.874 22.876 20.013 39.063 47.538 44.703 78.719zm-65.112 0c-5.442-26.674-19.56-50.202-39.317-67.465-21.458-18.766-49.55-30.104-80.335-30.104-33.732 0-64.233 13.663-86.344 35.745-22.082 22.083-35.745 52.611-35.745 86.344 0 33.705 13.663 64.234 35.745 86.316 22.111 22.111 52.612 35.774 86.344 35.774 14.627 0 28.602-2.551 41.5-7.2 12.444-4.507 23.981-10.999 34.186-19.049-.255-1.927-.396-3.883-.396-5.839 0-11.877 4.847-22.677 12.671-30.502 2.126-2.126 4.479-4.053 7.029-5.697-1.956-1.389-3.798-2.948-5.499-4.649-2.92-2.948-5.442-6.293-7.455-9.95-4.479 9.355-10.488 17.83-17.745 25.088-16.469 16.441-39.204 26.617-64.29 26.617-25.115 0-47.849-10.176-64.29-26.617-16.47-16.47-26.646-39.204-26.646-64.291 0-25.115 10.177-47.849 26.646-64.29 5.159-5.188 10.97-9.752 17.263-13.55 13.72-8.589 30.898-13.096 47.027-13.096 17.093 0 33.109 4.734 46.773 12.955 6.094 3.487 12.529 8.702 17.518 13.692 13.691 13.691 23.046 31.748 25.796 51.875 7.68-7.401 18.112-12.022 29.564-12.107zm-27.78-209.539c-4.139 0-7.512-3.373-7.512-7.512s3.373-7.483 7.512-7.483h65.141c4.139 0 7.483 3.345 7.483 7.483 0 4.139-3.345 7.512-7.483 7.512zm-239.615 0c-4.139 0-7.512-3.373-7.512-7.512s3.373-7.483 7.512-7.483h7.795c4.138 0 7.483 3.345 7.483 7.483 0 4.139-3.345 7.512-7.483 7.512zm89.831 0c-4.139 0-7.512-3.373-7.512-7.512s3.373-7.483 7.512-7.483h7.795c4.139 0 7.483 3.345 7.483 7.483 0 4.139-3.345 7.512-7.483 7.512zm-44.93 0c-4.139 0-7.483-3.373-7.483-7.512s3.345-7.483 7.483-7.483h7.795c4.139 0 7.512 3.345 7.512 7.483 0 4.139-3.373 7.512-7.512 7.512zm67.268 166.963v22.394c0 5.414 2.239 10.346 5.811 13.918s8.504 5.811 13.918 5.811h31.664c5.414 0 10.346-2.24 13.946-5.811 3.572-3.572 5.783-8.504 5.783-13.918v-22.394c-10.602-5.642-22.706-8.845-35.547-8.845-12.87 0-24.974 3.203-35.575 8.845zm86.117 10.431v11.962c0 9.553-3.883 18.227-10.177 24.52-6.292 6.293-14.967 10.205-24.548 10.205h-31.664c-9.553 0-18.227-3.912-24.52-10.205-6.294-6.293-10.205-14.967-10.205-24.52v-11.962c-1.077.964-2.098 1.956-3.118 2.977-13.748 13.72-22.252 32.712-22.252 53.688 0 20.949 8.504 39.941 22.252 53.661 13.72 13.749 32.712 22.252 53.689 22.252 20.948 0 39.94-8.504 53.689-22.252 13.72-13.72 22.224-32.712 22.224-53.661 0-20.977-8.504-39.969-22.224-53.688-1.02-1.021-2.069-2.013-3.146-2.977zm134.221-147.857v-56.835c0-4.733-1.928-9.042-5.074-12.189-3.118-3.118-7.427-5.074-12.16-5.074h-326.158c-4.734 0-9.043 1.956-12.19 5.074-3.118 3.146-5.074 7.455-5.074 12.189v56.835z"/></g></svg>